{
    "asset" : {
        "generator" : "Khronos glTF Blender I/O v1.3.48",
        "version" : "2.0"
    },
    "scene" : 0,
    "scenes" : [
        {
            "name" : "Scene",
            "nodes" : [
                0,
                1,
                2,
                3,
                4,
                5,
                6,
                7
            ]
        }
    ],
    "nodes" : [
        {
            "name" : "Light",
            "rotation" : [
                0.16907575726509094,
                0.7558803558349609,
                -0.27217137813568115,
                0.570947527885437
            ],
            "scale" : [
                0.6249558925628662,
                0.6249558329582214,
                0.624955952167511
            ],
            "translation" : [
                3.490248203277588,
                3.708646297454834,
                -3.03895902633667
            ]
        },
        {
            "name" : "Camera",
            "rotation" : [
                0.586372435092926,
                0,
                0,
                0.8100415468215942
            ],
            "scale" : [
                0.6249557733535767,
                0.6249558925628662,
                0.6249557733535767
            ],
            "translation" : [
                0,
                3.756531238555908,
                7
            ]
        },
        {
            "name" : "Empty",
            "rotation" : [
                0.5618600249290466,
                0.5621702075004578,
                -0.42923274636268616,
                0.428995817899704
            ],
            "translation" : [
                -0.006809100043028593,
                -0.8534878492355347,
                -0.7471309900283813
            ]
        },
        {
            "mesh" : 0,
            "name" : "Plane.002",
            "rotation" : [
                0,
                -0.7047539949417114,
                0,
                0.7094517946243286
            ],
            "scale" : [
                0.11104805022478104,
                0.11104805022478104,
                0.11104805022478104
            ],
            "translation" : [
                1.60429048538208,
                1.0832324028015137,
                -1.2328250408172607
            ]
        },
        {
            "mesh" : 1,
            "name" : "Plane.003",
            "rotation" : [
                0,
                -0.7047539949417114,
                0,
                0.7094517946243286
            ],
            "scale" : [
                0.11104805022478104,
                0.11104805022478104,
                0.11104805022478104
            ],
            "translation" : [
                -0.9575697183609009,
                4.6218485832214355,
                -0.18361565470695496
            ]
        },
        {
            "mesh" : 2,
            "name" : "Plane.004",
            "rotation" : [
                0.4983363449573517,
                -0.4983362853527069,
                -0.5016581416130066,
                0.5016582012176514
            ],
            "scale" : [
                0.11104805022478104,
                0.11104805022478104,
                0.11104805022478104
            ],
            "translation" : [
                0.3092440962791443,
                2.0539748668670654,
                0.891854465007782
            ]
        },
        {
            "mesh" : 3,
            "name" : "Plane.005",
            "rotation" : [
                0,
                -0.7047539949417114,
                0,
                0.7094517946243286
            ],
            "scale" : [
                0.11104805022478104,
                0.11104805022478104,
                0.11104805022478104
            ],
            "translation" : [
                0.8903660774230957,
                0.3972216844558716,
                0.29756680130958557
            ]
        },
        {
            "mesh" : 4,
            "name" : "Plane",
            "rotation" : [
                0.4983363449573517,
                -0.4983362853527069,
                -0.5016581416130066,
                0.5016582012176514
            ],
            "scale" : [
                0.0343320369720459,
                0.042925845831632614,
                0.024643857032060623
            ],
            "translation" : [
                0.17003893852233887,
                0.049613237380981445,
                -0.19110724329948425
            ]
        }
    ],
    "materials" : [
        {
            "doubleSided" : true,
            "name" : "eyes_color",
            "pbrMetallicRoughness" : {}
        },
        {
            "doubleSided" : true,
            "name" : "black_stroke",
            "pbrMetallicRoughness" : {}
        }
    ],
    "meshes" : [
        {
            "name" : "eyes",
            "primitives" : [
                {
                    "attributes" : {
                        "POSITION" : 0,
                        "NORMAL" : 1,
                        "TEXCOORD_0" : 2
                    },
                    "indices" : 3,
                    "material" : 0
                }
            ]
        },
        {
            "name" : "body",
            "primitives" : [
                {
                    "attributes" : {
                        "POSITION" : 4,
                        "NORMAL" : 5,
                        "TEXCOORD_0" : 6
                    },
                    "indices" : 7
                }
            ]
        },
        {
            "name" : "head_black_stroke",
            "primitives" : [
                {
                    "attributes" : {
                        "POSITION" : 8,
                        "NORMAL" : 9,
                        "TEXCOORD_0" : 10
                    },
                    "indices" : 11,
                    "material" : 1
                }
            ]
        },
        {
            "name" : "tongue",
            "primitives" : [
                {
                    "attributes" : {
                        "POSITION" : 12,
                        "NORMAL" : 13,
                        "TEXCOORD_0" : 14
                    },
                    "indices" : 15
                }
            ]
        },
        {
            "name" : "Head",
            "primitives" : [
                {
                    "attributes" : {
                        "POSITION" : 16,
                        "NORMAL" : 17,
                        "TEXCOORD_0" : 18
                    },
                    "indices" : 19
                }
            ]
        }
    ],
    "accessors" : [
        {
            "bufferView" : 0,
            "componentType" : 5126,
            "count" : 3968,
            "max" : [
                12.773320198059082,
                9.877721786499023,
                17.701969146728516
            ],
            "min" : [
                10.861736297607422,
                8.447431564331055,
                8.533346176147461
            ],
            "type" : "VEC3"
        },
        {
            "bufferView" : 1,
            "componentType" : 5126,
            "count" : 3968,
            "type" : "VEC3"
        },
        {
            "bufferView" : 2,
            "componentType" : 5126,
            "count" : 3968,
            "type" : "VEC2"
        },
        {
            "bufferView" : 3,
            "componentType" : 5123,
            "count" : 5760,
            "type" : "SCALAR"
        },
        {
            "bufferView" : 4,
            "componentType" : 5126,
            "count" : 28674,
            "max" : [
                5.967762470245361,
                -28.287439346313477,
                4.07838773727417
            ],
            "min" : [
                -12.910327911376953,
                -41.46453094482422,
                -23.764450073242188
            ],
            "type" : "VEC3"
        },
        {
            "bufferView" : 5,
            "componentType" : 5126,
            "count" : 28674,
            "type" : "VEC3"
        },
        {
            "bufferView" : 6,
            "componentType" : 5126,
            "count" : 28674,
            "type" : "VEC2"
        },
        {
            "bufferView" : 7,
            "componentType" : 5123,
            "count" : 43188,
            "type" : "SCALAR"
        },
        {
            "bufferView" : 8,
            "componentType" : 5126,
            "count" : 120,
            "max" : [
                2.271296977996826,
                -5.847570896148682,
                8.220534324645996
            ],
            "min" : [
                -3.4291558265686035,
                -8.121500015258789,
                -5.263372421264648
            ],
            "type" : "VEC3"
        },
        {
            "bufferView" : 9,
            "componentType" : 5126,
            "count" : 120,
            "type" : "VEC3"
        },
        {
            "bufferView" : 10,
            "componentType" : 5126,
            "count" : 120,
            "type" : "VEC2"
        },
        {
            "bufferView" : 11,
            "componentType" : 5123,
            "count" : 336,
            "type" : "SCALAR"
        },
        {
            "bufferView" : 12,
            "componentType" : 5126,
            "count" : 975,
            "max" : [
                -0.11017780005931854,
                11.044178009033203,
                14.647375106811523
            ],
            "min" : [
                -0.22062112390995026,
                7.890942573547363,
                8.824417114257812
            ],
            "type" : "VEC3"
        },
        {
            "bufferView" : 13,
            "componentType" : 5126,
            "count" : 975,
            "type" : "VEC3"
        },
        {
            "bufferView" : 14,
            "componentType" : 5126,
            "count" : 975,
            "type" : "VEC2"
        },
        {
            "bufferView" : 15,
            "componentType" : 5123,
            "count" : 1668,
            "type" : "SCALAR"
        },
        {
            "bufferView" : 16,
            "componentType" : 5126,
            "count" : 3966,
            "max" : [
                -40.06790542602539,
                14.205069541931152,
                36.00083541870117
            ],
            "min" : [
                -81.43783569335938,
                -14.486323356628418,
                -34.608154296875
            ],
            "type" : "VEC3"
        },
        {
            "bufferView" : 17,
            "componentType" : 5126,
            "count" : 3966,
            "type" : "VEC3"
        },
        {
            "bufferView" : 18,
            "componentType" : 5126,
            "count" : 3966,
            "type" : "VEC2"
        },
        {
            "bufferView" : 19,
            "componentType" : 5123,
            "count" : 6081,
            "type" : "SCALAR"
        }
    ],
    "bufferViews" : [
        {
            "buffer" : 0,
            "byteLength" : 47616,
            "byteOffset" : 0
        },
        {
            "buffer" : 0,
            "byteLength" : 47616,
            "byteOffset" : 47616
        },
        {
            "buffer" : 0,
            "byteLength" : 31744,
            "byteOffset" : 95232
        },
        {
            "buffer" : 0,
            "byteLength" : 11520,
            "byteOffset" : 126976
        },
        {
            "buffer" : 0,
            "byteLength" : 344088,
            "byteOffset" : 138496
        },
        {
            "buffer" : 0,
            "byteLength" : 344088,
            "byteOffset" : 482584
        },
        {
            "buffer" : 0,
            "byteLength" : 229392,
            "byteOffset" : 826672
        },
        {
            "buffer" : 0,
            "byteLength" : 86376,
            "byteOffset" : 1056064
        },
        {
            "buffer" : 0,
            "byteLength" : 1440,
            "byteOffset" : 1142440
        },
        {
            "buffer" : 0,
            "byteLength" : 1440,
            "byteOffset" : 1143880
        },
        {
            "buffer" : 0,
            "byteLength" : 960,
            "byteOffset" : 1145320
        },
        {
            "buffer" : 0,
            "byteLength" : 672,
            "byteOffset" : 1146280
        },
        {
            "buffer" : 0,
            "byteLength" : 11700,
            "byteOffset" : 1146952
        },
        {
            "buffer" : 0,
            "byteLength" : 11700,
            "byteOffset" : 1158652
        },
        {
            "buffer" : 0,
            "byteLength" : 7800,
            "byteOffset" : 1170352
        },
        {
            "buffer" : 0,
            "byteLength" : 3336,
            "byteOffset" : 1178152
        },
        {
            "buffer" : 0,
            "byteLength" : 47592,
            "byteOffset" : 1181488
        },
        {
            "buffer" : 0,
            "byteLength" : 47592,
            "byteOffset" : 1229080
        },
        {
            "buffer" : 0,
            "byteLength" : 31728,
            "byteOffset" : 1276672
        },
        {
            "buffer" : 0,
            "byteLength" : 12162,
            "byteOffset" : 1308400
        }
    ],
    "buffers" : [
        {
            "byteLength" : 1320564,
            "uri" : "data:application/octet-stream;base64,"
        }
    ]
}
