{
    "asset" : {
        "generator" : "Khronos glTF Blender I/O v1.3.48",
        "version" : "2.0"
    },
    "scene" : 0,
    "scenes" : [
        {
            "name" : "Scene",
            "nodes" : [
                0,
                1,
                2,
                3,
                4,
                5,
                6
            ]
        }
    ],
    "nodes" : [
        {
            "mesh" : 0,
            "name" : "Upper Body",
            "scale" : [
                0.22970828413963318,
                0.22970828413963318,
                0.16598591208457947
            ],
            "translation" : [
                0,
                0.35921186208724976,
                0
            ]
        },
        {
            "mesh" : 1,
            "name" : "Horn",
            "scale" : [
                0.22970828413963318,
                0.22970828413963318,
                0.16598591208457947
            ],
            "translation" : [
                0,
                0.35921186208724976,
                0
            ]
        },
        {
            "mesh" : 2,
            "name" : "Lower_Face",
            "scale" : [
                0.22970828413963318,
                0.22970828413963318,
                0.16598591208457947
            ],
            "translation" : [
                0,
                0.35921186208724976,
                0
            ]
        },
        {
            "mesh" : 3,
            "name" : "Eyes",
            "scale" : [
                0.22970828413963318,
                0.22970828413963318,
                0.16598591208457947
            ],
            "translation" : [
                0,
                0.35921186208724976,
                0
            ]
        },
        {
            "mesh" : 4,
            "name" : "Upper Head",
            "scale" : [
                0.22970828413963318,
                0.22970828413963318,
                0.16598591208457947
            ],
            "translation" : [
                0,
                0.35921186208724976,
                0
            ]
        },
        {
            "mesh" : 5,
            "name" : "Lower Body",
            "scale" : [
                0.22970828413963318,
                0.22970828413963318,
                0.16598591208457947
            ],
            "translation" : [
                0,
                0.35921186208724976,
                0
            ]
        },
        {
            "mesh" : 6,
            "name" : "Ivory Nails",
            "scale" : [
                0.22970828413963318,
                0.22970828413963318,
                0.16598591208457947
            ],
            "translation" : [
                0,
                0.35921186208724976,
                0
            ]
        }
    ],
    "materials" : [
        {
            "doubleSided" : true,
            "emissiveFactor" : [
                0,
                0,
                0
            ],
            "name" : "Upper_Body",
            "pbrMetallicRoughness" : {
                "baseColorFactor" : [
                    0.10702300071716309,
                    0.10702311247587204,
                    0.10702311992645264,
                    1
                ],
                "metallicFactor" : 0,
                "roughnessFactor" : 0.5
            }
        },
        {
            "doubleSided" : true,
            "emissiveFactor" : [
                0,
                0,
                0
            ],
            "name" : "Horn",
            "pbrMetallicRoughness" : {
                "baseColorFactor" : [
                    0.5647118091583252,
                    0.5583404898643494,
                    0.46207696199417114,
                    1
                ],
                "metallicFactor" : 0,
                "roughnessFactor" : 0.5
            }
        },
        {
            "doubleSided" : true,
            "emissiveFactor" : [
                0,
                0,
                0
            ],
            "name" : "Lower_Face",
            "pbrMetallicRoughness" : {
                "baseColorFactor" : [
                    0.3049873113632202,
                    0.30498743057250977,
                    0.3049874007701874,
                    1
                ],
                "metallicFactor" : 0,
                "roughnessFactor" : 0.5
            }
        },
        {
            "doubleSided" : true,
            "emissiveFactor" : [
                0,
                0,
                0
            ],
            "name" : "Eyes",
            "pbrMetallicRoughness" : {
                "baseColorFactor" : [
                    0,
                    0,
                    0,
                    1
                ],
                "metallicFactor" : 0,
                "roughnessFactor" : 0.5
            }
        },
        {
            "doubleSided" : true,
            "emissiveFactor" : [
                0,
                0,
                0
            ],
            "name" : "Upper_Head",
            "pbrMetallicRoughness" : {
                "baseColorFactor" : [
                    0.10702313482761383,
                    0.10702311247587204,
                    0.10702311992645264,
                    1
                ],
                "metallicFactor" : 0,
                "roughnessFactor" : 0.5
            }
        },
        {
            "doubleSided" : true,
            "emissiveFactor" : [
                0,
                0,
                0
            ],
            "name" : "Lower_Boddy",
            "pbrMetallicRoughness" : {
                "baseColorFactor" : [
                    0.30498701333999634,
                    0.30498743057250977,
                    0.3049874007701874,
                    1
                ],
                "metallicFactor" : 0,
                "roughnessFactor" : 0.5
            }
        },
        {
            "doubleSided" : true,
            "emissiveFactor" : [
                0,
                0,
                0
            ],
            "name" : "Ivory_Nails",
            "pbrMetallicRoughness" : {
                "baseColorFactor" : [
                    0.5647119879722595,
                    0.5583404898643494,
                    0.46207696199417114,
                    1
                ],
                "metallicFactor" : 0,
                "roughnessFactor" : 0.5
            }
        }
    ],
    "meshes" : [
        {
            "name" : "Upper_Boddy",
            "primitives" : [
                {
                    "attributes" : {
                        "POSITION" : 0,
                        "NORMAL" : 1,
                        "TEXCOORD_0" : 2
                    },
                    "indices" : 3,
                    "material" : 0
                }
            ]
        },
        {
            "name" : "Horn",
            "primitives" : [
                {
                    "attributes" : {
                        "POSITION" : 4,
                        "NORMAL" : 5,
                        "TEXCOORD_0" : 6
                    },
                    "indices" : 7,
                    "material" : 1
                }
            ]
        },
        {
            "name" : "Lower_face",
            "primitives" : [
                {
                    "attributes" : {
                        "POSITION" : 8,
                        "NORMAL" : 9,
                        "TEXCOORD_0" : 10
                    },
                    "indices" : 11,
                    "material" : 2
                }
            ]
        },
        {
            "name" : "Eyes",
            "primitives" : [
                {
                    "attributes" : {
                        "POSITION" : 12,
                        "NORMAL" : 13,
                        "TEXCOORD_0" : 14
                    },
                    "indices" : 15,
                    "material" : 3
                }
            ]
        },
        {
            "name" : "Upper_Head",
            "primitives" : [
                {
                    "attributes" : {
                        "POSITION" : 16,
                        "NORMAL" : 17,
                        "TEXCOORD_0" : 18
                    },
                    "indices" : 19,
                    "material" : 4
                }
            ]
        },
        {
            "name" : "Lower_Body",
            "primitives" : [
                {
                    "attributes" : {
                        "POSITION" : 20,
                        "NORMAL" : 21,
                        "TEXCOORD_0" : 22
                    },
                    "indices" : 23,
                    "material" : 5
                }
            ]
        },
        {
            "name" : "Ivory_Nails",
            "primitives" : [
                {
                    "attributes" : {
                        "POSITION" : 24,
                        "NORMAL" : 25,
                        "TEXCOORD_0" : 26
                    },
                    "indices" : 27,
                    "material" : 6
                }
            ]
        }
    ],
    "accessors" : [
        {
            "bufferView" : 0,
            "componentType" : 5126,
            "count" : 6864,
            "max" : [
                4.689849853515625,
                13.376282691955566,
                13.260828971862793
            ],
            "min" : [
                -6.617441177368164,
                -1.4232345819473267,
                -8.013551712036133
            ],
            "type" : "VEC3"
        },
        {
            "bufferView" : 1,
            "componentType" : 5126,
            "count" : 6864,
            "type" : "VEC3"
        },
        {
            "bufferView" : 2,
            "componentType" : 5126,
            "count" : 6864,
            "type" : "VEC2"
        },
        {
            "bufferView" : 3,
            "componentType" : 5123,
            "count" : 11298,
            "type" : "SCALAR"
        },
        {
            "bufferView" : 4,
            "componentType" : 5126,
            "count" : 1088,
            "max" : [
                2.963477611541748,
                8.606890678405762,
                15.339073181152344
            ],
            "min" : [
                1.2820593118667603,
                5.244041442871094,
                11.622767448425293
            ],
            "type" : "VEC3"
        },
        {
            "bufferView" : 5,
            "componentType" : 5126,
            "count" : 1088,
            "type" : "VEC3"
        },
        {
            "bufferView" : 6,
            "componentType" : 5126,
            "count" : 1088,
            "type" : "VEC2"
        },
        {
            "bufferView" : 7,
            "componentType" : 5123,
            "count" : 1716,
            "type" : "SCALAR"
        },
        {
            "bufferView" : 8,
            "componentType" : 5126,
            "count" : 1275,
            "max" : [
                7.314401626586914,
                9.371173858642578,
                14.231438636779785
            ],
            "min" : [
                -3.289768695831299,
                2.1601648330688477,
                1.5364305973052979
            ],
            "type" : "VEC3"
        },
        {
            "bufferView" : 9,
            "componentType" : 5126,
            "count" : 1275,
            "type" : "VEC3"
        },
        {
            "bufferView" : 10,
            "componentType" : 5126,
            "count" : 1275,
            "type" : "VEC2"
        },
        {
            "bufferView" : 11,
            "componentType" : 5123,
            "count" : 1971,
            "type" : "SCALAR"
        },
        {
            "bufferView" : 12,
            "componentType" : 5126,
            "count" : 3612,
            "max" : [
                4.075082778930664,
                9.2750883102417,
                10.810279846191406
            ],
            "min" : [
                -1.5180845260620117,
                7.001317977905273,
                9.456491470336914
            ],
            "type" : "VEC3"
        },
        {
            "bufferView" : 13,
            "componentType" : 5126,
            "count" : 3612,
            "type" : "VEC3"
        },
        {
            "bufferView" : 14,
            "componentType" : 5126,
            "count" : 3612,
            "type" : "VEC2"
        },
        {
            "bufferView" : 15,
            "componentType" : 5123,
            "count" : 5250,
            "type" : "SCALAR"
        },
        {
            "bufferView" : 16,
            "componentType" : 5126,
            "count" : 2318,
            "max" : [
                5.285164833068848,
                13.463851928710938,
                13.146173477172852
            ],
            "min" : [
                -4.490527153015137,
                4.388792037963867,
                1.6608694791793823
            ],
            "type" : "VEC3"
        },
        {
            "bufferView" : 17,
            "componentType" : 5126,
            "count" : 2318,
            "type" : "VEC3"
        },
        {
            "bufferView" : 18,
            "componentType" : 5126,
            "count" : 2318,
            "type" : "VEC2"
        },
        {
            "bufferView" : 19,
            "componentType" : 5123,
            "count" : 3642,
            "type" : "SCALAR"
        },
        {
            "bufferView" : 20,
            "componentType" : 5126,
            "count" : 120,
            "max" : [
                3.6281633377075195,
                2.5105180740356445,
                2.058713436126709
            ],
            "min" : [
                -3.927495002746582,
                0.6389870643615723,
                -7.370477676391602
            ],
            "type" : "VEC3"
        },
        {
            "bufferView" : 21,
            "componentType" : 5126,
            "count" : 120,
            "type" : "VEC3"
        },
        {
            "bufferView" : 22,
            "componentType" : 5126,
            "count" : 120,
            "type" : "VEC2"
        },
        {
            "bufferView" : 23,
            "componentType" : 5123,
            "count" : 174,
            "type" : "SCALAR"
        },
        {
            "bufferView" : 24,
            "componentType" : 5126,
            "count" : 682,
            "max" : [
                3.006718635559082,
                0.27458757162094116,
                1.0491094589233398
            ],
            "min" : [
                -3.394400119781494,
                -1.4232345819473267,
                -5.71556282043457
            ],
            "type" : "VEC3"
        },
        {
            "bufferView" : 25,
            "componentType" : 5126,
            "count" : 682,
            "type" : "VEC3"
        },
        {
            "bufferView" : 26,
            "componentType" : 5126,
            "count" : 682,
            "type" : "VEC2"
        },
        {
            "bufferView" : 27,
            "componentType" : 5123,
            "count" : 1056,
            "type" : "SCALAR"
        }
    ],
    "bufferViews" : [
        {
            "buffer" : 0,
            "byteLength" : 82368,
            "byteOffset" : 0
        },
        {
            "buffer" : 0,
            "byteLength" : 82368,
            "byteOffset" : 82368
        },
        {
            "buffer" : 0,
            "byteLength" : 54912,
            "byteOffset" : 164736
        },
        {
            "buffer" : 0,
            "byteLength" : 22596,
            "byteOffset" : 219648
        },
        {
            "buffer" : 0,
            "byteLength" : 13056,
            "byteOffset" : 242244
        },
        {
            "buffer" : 0,
            "byteLength" : 13056,
            "byteOffset" : 255300
        },
        {
            "buffer" : 0,
            "byteLength" : 8704,
            "byteOffset" : 268356
        },
        {
            "buffer" : 0,
            "byteLength" : 3432,
            "byteOffset" : 277060
        },
        {
            "buffer" : 0,
            "byteLength" : 15300,
            "byteOffset" : 280492
        },
        {
            "buffer" : 0,
            "byteLength" : 15300,
            "byteOffset" : 295792
        },
        {
            "buffer" : 0,
            "byteLength" : 10200,
            "byteOffset" : 311092
        },
        {
            "buffer" : 0,
            "byteLength" : 3942,
            "byteOffset" : 321292
        },
        {
            "buffer" : 0,
            "byteLength" : 43344,
            "byteOffset" : 325236
        },
        {
            "buffer" : 0,
            "byteLength" : 43344,
            "byteOffset" : 368580
        },
        {
            "buffer" : 0,
            "byteLength" : 28896,
            "byteOffset" : 411924
        },
        {
            "buffer" : 0,
            "byteLength" : 10500,
            "byteOffset" : 440820
        },
        {
            "buffer" : 0,
            "byteLength" : 27816,
            "byteOffset" : 451320
        },
        {
            "buffer" : 0,
            "byteLength" : 27816,
            "byteOffset" : 479136
        },
        {
            "buffer" : 0,
            "byteLength" : 18544,
            "byteOffset" : 506952
        },
        {
            "buffer" : 0,
            "byteLength" : 7284,
            "byteOffset" : 525496
        },
        {
            "buffer" : 0,
            "byteLength" : 1440,
            "byteOffset" : 532780
        },
        {
            "buffer" : 0,
            "byteLength" : 1440,
            "byteOffset" : 534220
        },
        {
            "buffer" : 0,
            "byteLength" : 960,
            "byteOffset" : 535660
        },
        {
            "buffer" : 0,
            "byteLength" : 348,
            "byteOffset" : 536620
        },
        {
            "buffer" : 0,
            "byteLength" : 8184,
            "byteOffset" : 536968
        },
        {
            "buffer" : 0,
            "byteLength" : 8184,
            "byteOffset" : 545152
        },
        {
            "buffer" : 0,
            "byteLength" : 5456,
            "byteOffset" : 553336
        },
        {
            "buffer" : 0,
            "byteLength" : 2112,
            "byteOffset" : 558792
        }
    ],
    "buffers" : [
        {
            "byteLength" : 560904,
            "uri" : "data:application/octet-stream;base64,"
        }
    ]
}
